<svg width="40" height="62" viewBox="0 0 40 62" xmlns="http://www.w3.org/2000/svg"><title>nandos-logo</title><g fill="none"><path d="M31.7 30.9c.1-1.4.2-4.8.4-7.5.3.4.8.8 1.5.6.3-.1 1.1-.3 1.2-1.4 0-.6-.4-1.4-1.7-2.8l-.3-.3c.7-.7 1.9-1.9 2.5-2.9l.1-.3-.2-.2c-1.2-1-2.8-1.9-3.6-2.3-.4-.2-.7-.4-1-.5l.1-.1c.7-.7 3.7-4.1 1.8-8.6C30.7.1 26 .2 23.5.7c-.9.2-1.7.7-2.1.9-1.6 1.1-2.8 2.7-3.2 4.6-.4 2.1.2 4.4 1.8 5.9.3.3.4.4.5.3 0 0 .1-.4.7-1 .2-.2 1.4-1.2 3-.7.9.3 1.4.8 1.7 1.5.1.3.2.7.2 1.1H26c-1.2.7-2.5 2.5-2.2 6.6.4 4.7.7 8.6.9 10.8-.7 0-1.4.1-2 .2 1-4.3.8-9.2-3.9-12.2-4.6-2.7-10.9-1.8-14.9 1.6-4 3.4-4.9 9.2-2.8 13.9l.6 1.2c.7 1.2 1.6 2.2 2.7 3 1.1.8 2.4 1.4 3.7 1.8.8.3 1.6.5 2.5.6.1 0 .2-.1.1-.2s-.1-.2-.1-.2c-.2-.4-.4-.9-.5-1.4-.3-1.7.2-3.7 1.7-4.8 1.3-1 3.3-1 4.6 0l.6.6c-.8 1.7-.8 3.6-.5 4.8.2.8.3 1.1.4 1.5.7 2.2 2.7 4.6 3.4 5.5 1 1.3 4 4.4 5.1 5.5v4.6c-.4.2-2.9 1.8-4 4.2-.1.2.1.5.4.5 1.9-.3 4.3-.5 6.7-.5 2.3 0 4.5.2 6.4.5.3 0 .5-.2.4-.5-1.1-2.3-3.6-3.9-4-4.2v-4.6c1-1.1 3.8-4.2 4.7-5.5.7-.9 3.3-4.3 3.8-7 .4-2.6-.1-8.4-8.1-8.7zM34 16.7c-.5.7-1.2 1.4-1.8 1.9 0-1.5-.3-2.6-.7-3.4 1.5.5 2.5 1.5 2.5 1.5z" fill="#000"/><path d="M33.6 22.2c.1.3.1.6-.2.8-.2.1-.5 0-.7-.2v-.2c-.1-.1-.1-.3-.2-.5-.1-.4-.2-1.1-.3-1.4v-.2l.1.1c.3.3.8.8 1 1.1.1.2.2.4.3.5zm-14.2-1.1c-1.3-1.3-3.1-2.1-4.9-2.3-4.8-.8-10 1.3-12.2 5.7-1.8 3.8-1 9 1.9 12C5.6 37.8 7 38.6 8.8 39c0 0-.2-1.2.1-2.5.3-1.4 1-3.2 3.1-4 3.1-1.2 4.9.3 6 1 .7-.8 1.2-1.1 1.9-1.4.6-.3.9-.4 1.4-.5.6-1.4.9-4 .6-5.5-.5-1.7-.7-3.4-2.5-5zm11.8 14.8c-2.1-.2-3 1.7-3 1.8 0-.1-.9-2-3-1.8-2.2.2-3.6 2.8-.7 6.9 2.8 4 3.7 4.2 3.7 4.2.1 0 .9-.2 3.7-4.2 3-4 1.5-6.7-.7-6.9zm-3.9-23.1v.2c.7-.1 1.4-.1 1.9 0 1.2-1 2.1-2.5 2.4-4.2.3-1.9-.1-3.7-1.2-5-1.2-1.3-2.7-2-4.6-2h-.3c-1.8 0-2.9.4-4.2 1.5-.5.4-1.7 1.6-1.9 3.5-.1 1 0 1.8.1 2.2 0 .1 0 .2.1.2.1.4.2.7.6 1.3.5-.5 1.1-.8 1.8-1 .5-.1 1-.2 1.5-.2.2 0 1.5.2 2.4.9 1.3 1.1 1.4 2.1 1.4 2.6z" fill="#CE0A24"/><g transform="translate(2 15)" fill="#FFF"><path d="M25.9 5.7c.2-.3.6-.5.9-.3.3.1.4.5.3.8v.2c-.1.1-.2.3-.4.5-.3.3-.8 1-1.1 1.3-.1.1-.1.2-.1.1v-.2c.1-.4.2-1.4.3-1.7-.1-.3 0-.5.1-.7-.1.1 0 .1 0 0zm2.2-3.9c0 1-.8 1.8-1.8 1.8s-1.8-.8-1.8-1.8.8-1.8 1.8-1.8 1.8.8 1.8 1.8zm-1 0c0-.5-.4-.8-.8-.8-.5 0-.8.4-.8.8 0 .5.4.8.8.8.5.1.8-.3.8-.8zM29.6.2c.4.8.7 1.9.7 3.4.5-.5 1.3-1.2 1.8-1.9-.1 0-1.1-1-2.5-1.5z"/><circle cx="13.7" cy="6.6" r="1"/><circle cx="16.3" cy="8.9" r="1"/><circle cx="17.2" cy="12" r="1"/><circle cx="4.3" cy="20.4" r="1"/><circle cx="2.4" cy="17.7" r="1"/><circle cx="1.6" cy="14.6" r="1"/><circle cx="2.1" cy="11.3" r="1"/><circle cx="3.8" cy="8.5" r="1"/><circle cx="6.8" cy="6.6" r="1"/><circle cx="10.3" cy="5.9" r="1"/><circle cx="16.5" cy="15.2" r="1"/></g></g></svg>