<?xml version="1.0" standalone="no"?>
<!DOCTYPE svg PUBLIC "-//W3C//DTD SVG 1.1//EN" "http://www.w3.org/Graphics/SVG/1.1/DTD/svg11.dtd">
<svg xmlns="http://www.w3.org/2000/svg">
<metadata>Copyright (C) 2019 by original authors @ fontello.com</metadata>
<defs>
<font id="nandos-icons" horiz-adv-x="1000" >
<font-face font-family="nandos-icons" font-weight="400" font-stretch="normal" units-per-em="1000" ascent="850" descent="-150" />
<missing-glyph horiz-adv-x="1000" />
<glyph glyph-name="e-recruit" unicode="&#xe800;" d="M963 124l-191 106-109 65c-12 6-25 8-37 7 18 61 9 120-9 179-25 80-79 144-159 184-59 29-121 44-181 36-102-12-192-68-242-167-44-88-46-184-10-267 29-67 83-126 153-161 81-40 168-37 247-8 58 20 112 52 150 103 7-11 16-20 28-26l204-105 96-66c33-17 73-3 90 30 17 33 3 74-30 90z m-424 157c-58-118-221-161-344-92-117 59-146 192-88 309 59 117 199 177 318 111 133-62 173-211 114-328z m-221 266c49 0 88-40 88-89 0-49-39-88-88-88-49 0-89 39-89 88 0 49 40 89 89 89z m169-293c0 0-66-80-155-80-120 0-163 70-163 70-5 24 54 100 158 100 104 0 159-76 160-90z" horiz-adv-x="1000" />

<glyph glyph-name="e-recruit2" unicode="&#xe801;" d="M633 742c-145 144-380 144-525 0-144-145-144-380 0-525 136-153 380-144 525 0 121 122 144 380 0 525l0 0z m-263-585c-82 0-165 31-228 94-126 126-126 331 0 457 126 126 348 114 457 0 126-126 126-331 0-457-63-63-146-94-229-94l0 0z m623-191l-59 49-219 229-1 0c-14-21-30-44-49-62-19-19-38-32-59-46l0 0 63-53 216-226c4-5 10-7 17-7 6 0 13 3 18 7l73 73c9 11 9 26 0 36l0 0z m-622 793c-80 0-143-34-194-89-46-50-85-116-85-190 0-80 34-152 88-203v59c0 45 29 85 73 100 0 0 0 0 1 0l29 9c6 2 12 2 18-1l70-38 69 38c6 3 13 3 19 1l29-9c0 0 0 0 1 0 43-15 72-55 72-100v-60c55 51 89 124 89 204-17 147-125 279-279 279l0 0z m-1-286c-59 0-107 48-107 107s48 107 107 107 107-48 107-107-48-107-107-107z" horiz-adv-x="1000" />

<glyph glyph-name="loyalty" unicode="&#xe802;" d="M678 613c-29 85-143 57-143 0 0 57-114 85-142 0-13-39 30-94 73-122 51-33 69-93 69-93s171 129 143 215z m313-282c-18 30-57 19-87 1l-68-33-137-51c12 12 20 29 19 47 0 34-27 56-62 56l-102-13-91 9c-77 0-114 62-237 66v15c0 7-6 13-14 13h-212v-408l204 42c12 0 21 10 21 21v26c15-10 41-28 71-47 43-27 63-28 95-28l103 4 107-4c26 0 53 11 82 25 15 8 93 66 165 110 63 38 121 83 121 83 30 18 40 36 22 66z" horiz-adv-x="1000" />

<glyph glyph-name="restaurant" unicode="&#xe803;" d="M499 850c-108 0-225-32-307-91-126-91-192-242-192-409 0-99 26-195 76-273 50-78 125-137 209-177l15 302c0 0-29 9-35 13-63 27-108 108-108 213 0 114 89 213 175 214 0 0 0 0 0 0l0 0c86-1 175-100 175-214 0-105-46-186-108-213 0-1-36-14-36-14l18-336c38-9 78-15 119-15 56 0 109 10 159 27l15 299c-40 9-75 35-97 67-27 41 21 399 21 399h31v-336h31v336h34v-336h30v336h36v-336h30v336h24c0 0 48-358 21-399-21-32-56-58-96-67-1 0-2 0-2 0l14-258c86 50 157 107 200 198 31 65 49 157 49 234-1 276-225 500-501 500z m-269-371c2 7 4 14 4 14 1 3-1 6-4 7-3 2-6 1-7-1 0 0-4-5-9-13-4-7-10-18-14-32-3-12-8-28-10-46 0-10 0-18 0-27 0-10 2-19 5-28 10-28 17-55 44-82 9-9 18-15 24-19l2-2c2-1 3-2 4-2 6-3 10-4 10-4 3-1 5 0 7 3 1 2 0 5-2 6 0 0-3 3-7 8-3 3-6 8-9 13-3 3-6 7-8 11-14 20-21 48-32 78-2 6-4 14-4 21-1 8-1 16-1 23-1 16 0 31 1 42 2 13 3 23 6 30z" horiz-adv-x="1000" />

<glyph glyph-name="sms" unicode="&#xe804;" d="M499 304v-96l4-66-4-146h-146-118-150l-35-2-2 40v673h83 75l133 4 100-4c23 32 51 60 82 83-11 10-25 16-41 16 0 0-171-5-238 0-63 4-175 0-175 0-35 0-63-28-63-63 0 0 4-209 4-280 0-74-7-230-8-305-1-55 4-217 4-217 0-34 28-63 63-63 0 0 77 1 103 0 49-1 140-6 195 0 42 4 115 0 115 0 34 0 63 28 63 63 0 0 4 144 4 193 0 41-4 167-4 167-16 0-30 1-44 3z m-292 458h133c4 0 7-3 7-8 0-4-3-7-7-7h-133c-4 0-7 3-7 7 0 4 3 8 7 8z m67-852c-18 0-31 15-31 31 0 18 14 32 31 32s31-14 31-32c0-16-14-31-31-31z m441 915c-74 0-140-30-192-60-61-36-94-102-94-169 0-71 42-138 111-181-2-13-13-41-51-73-4-3-6-9-4-14 1-5 5-8 10-9 1 0 8-1 19-1 33 0 100 7 183 50 6 0 11 0 17 0 66 0 127 28 175 59 68 41 111 96 111 169 1 126-127 229-285 229z m-84-258c0-6-3-12-5-15l-10-11c-2-1-4-1-6-2l-9-5c-4 0-5-2-8-3l-10-1c-5 0-10 0-15 0-3 0-6 2-10 2h-1c0 0-7 3-8 3 0 0-5 2-7 5l-1 4c-3 3-4 9-4 12 0 1 0 1 0 2 0 1 0 1 0 2 0 2 5 4 8 5 1 0 2 0 3 0 1-1 9-2 9-6 0-2-2-2-2-4 0-5 5-10 13-10l12 0c2 0 4 2 7 4l1 2 2 4c0 0 0 3 0 5v2c0 0 0 1 0 1l-2 3c0 5-6 10-10 13l-5 2c-1 0-2 1-3 2l-2 2c-1 0-3 1-3 1l0 0c-1 0-2 1-3 2-1 0-10 5-13 11 0 7-5-2-5 20l1 6c1 2 2 5 3 7 1 0 1 5 6 10l3 2c1 1 7 5 9 5l6 2c3 2 5 3 9 3 2 0 5-2 6-2 1 0 1 0 1 0 4 0 9-3 12-3l7-2c3-2 4-5 4-9 0-3-5-9-10-9-1 0-5 3-5 5l-2 2c0 0-4 6-10 6-4 0-12-1-14-5l-5-6c-1-2-1-5-1-7 0 0 0-2 0-2l1-3c0 0 2-1 2-1l3-2c0-1 2-1 2-2l6 0c3 0 7-2 11-3 0 0 0 0 1 0 8 0 19-4 29-13 4-3 5-8 8-12l2-5c2-3 1-8 2-12v-2h0z m203 14c0-6-3-13-5-18 0 0-6-5-6-7-5-6-12-8-18-12l-13-14c-2 0-3-2-5-2h-1c0 1 0 2 0 4v3c0 2 0 4 0 6 0 3 0 4 1 7l0 20 1 5c1 3 1 5 1 8v5c0 2 0 4 0 5 0 2 0 5 0 7-2 13-2 13-2 13 0 7-1 8-1 11-2 2-4 12-11 12-3 0-11-6-18-12l-4-6c-1 0-1-1-1-2-1-4 2-7 2-11v-3c1-2 2-4 3-6v-2c0-1 1-5 1-6 0-2-2-6-3-7l-2-6c0-2-5-7-8-10 0 0-2-4-3-5 0 0 0 0-1 0l-6-11c0-2-4-4-4-4l-5-8c0-3-3-8-6-9-3 0-4 3-5 5 0 4-2 6-2 9 0-1-1 5-1 11v5c0 5 1 10 1 15 0-1 0 4 0 9v8c0 6-1 7-1 18 0 0 0 9-4 21-3 10-8 10-10 10-1 0-3 0-4 0l-5-5c-1 0-2 0-4-3l-5-5c0-2-4-6-5-8l-3-6c-1-2 0-4-1-6 0-1 1-2 1-3v-3c0-1 0-9 0-10 0-18 0-22-2-27-2-6-5-11-7-16l-1-1c-1-1-1-12-6-12-1 0-1 0-2 0l-3 7c0 1-1 2-1 3l-1 13c0 0-2 5-2 5 0 0 1 8-3 13 0 2 0 13-2 13v4c-1 6-1 14-1 18 0 6 0 13 1 19l2 11c2 3 0 12 7 12 2 0 6-2 6-5l3-3c1-1 3-4 4-6l3-6c0-1 0-3 1-3 2 3 5 7 6 8 2 2 10 11 15 13l4 2c1 1 2 1 4 1 3 0 11-2 11-2l12-5c3-1 3-3 10-6 1-2 7-8 8-8 1 0 5 5 7 7l3 2c0 0 2 2 2 3l3 2c5 5 9 14 17 14 1 0 3 0 4-1l4-2c1 0 6-2 9-3l7-4c2-2 5-2 7-4 1-1 9-8 10-10l3-3 3-4c0-1 2-2 3-3l3-5 5-12c1-1 4-8 4-12 0-2-1-4-1-6 2-4 3-6 3-8z m98-29l-10-11c-1-1-3-1-5-2l-9-5c-4 0-6-2-9-3l-9-1c-6 0-11 0-16 0-3 0-6 2-10 2h0c0 0-7 3-9 3 0 0-5 2-6 5l-1 4c-3 3-4 9-4 12 0 1 0 1 0 2 0 1 0 1 0 2 0 2 4 4 7 5 2 0 2 0 4 0 1-1 8-2 8-6 0-2-2-2-2-4 0-5 6-10 13-10l13 0c1 0 4 2 6 4l2 2 2 4c0 0 0 3 0 5v2c0 0 0 1 0 1l-2 3c0 5-7 10-11 13l-5 2c0 0-1 1-2 2l-3 2c0 0-3 1-3 1l0 0c0 0-2 1-2 2-1 0-10 5-13 11 0 7-5-2-5 20l0 6c2 2 2 5 4 7 0 0 1 5 6 10l2 2c1 1 7 5 10 5l5 2c3 2 6 3 9 3 3 0 5-2 7-2 0 0 1 0 1 0 4 0 9-3 12-3l7-2c3-2 4-5 4-9 0-3-5-9-10-9-1 0-6 3-6 5l-1 2c0 0-4 6-10 6-4 0-12-1-14-5l-6-6c-1-2-1-5-1-7 0 0 0-2 1-2l1-3c0 0 2-1 2-1l2-2c1-1 2-1 3-2l6 0c2 0 6-2 11-3 0 0 0 0 0 0 9 0 19-4 29-13 4-3 6-8 8-12l3-5c1-3 1-8 2-12v-4c-1-4-3-10-6-13z" horiz-adv-x="1000" />

<glyph glyph-name="food" unicode="&#xe805;" d="M994 679c-7 8-20 8-27 0 0 0-41-31-68-50-113-78-201-219-201-219l-93 3-174-3c0 11-8 20-19 20s-20-9-20-20l-197-2-97 2c-11 0-20-9-20-19v-118c0-45 14-86 34-123 21-38 49-70 86-93h-78l-96 4c-11 2-21-5-24-15-2-11 5-21 16-24l98-4c1 0 3 0 4 0l233 2 296-5 216 3c1 0 2 0 3 0l98 2c11 2 18 13 16 23-2 11-13 18-23 16l-97 0-78-2c72 45 120 125 120 216l-3 49 3 68c0 11-9 20-20 20l-66-2-63 2c0 0 51 88 153 176 30 27 88 65 88 65 8 8 8 20 0 28z" horiz-adv-x="1000" />

<glyph glyph-name="general" unicode="&#xe806;" d="M275 292c8 0 14-7 14-14 0-8-6-15-14-15-8 0-14 7-14 15 0 7 6 14 14 14z m99 238c8 0 14-6 14-14s-6-14-14-14c-8 0-14 6-14 14s6 14 14 14z m102-154c8 0 14-6 14-14 0-8-6-14-14-14s-14 6-14 14c0 8 6 14 14 14z m-46 142c8 0 14-7 14-15 0-7-6-14-14-14-7 0-14 7-14 14 0 8 7 15 14 15z m43-38c7 0 14-6 14-14 0-7-7-14-14-14-8 0-14 7-14 14 0 8 6 14 14 14z m-205 8c8 0 14-7 14-15 0-7-6-14-14-14-8 0-14 7-14 14 0 8 6 15 14 15z m-30-48c8 0 14-6 14-14 0-8-6-14-14-14-8 0-14 6-14 14 0 8 6 14 14 14z m-7-53c8 0 14-6 14-14 0-8-6-14-14-14s-14 6-14 14c0 8 6 14 14 14z m12-53c8 0 14-6 14-14s-6-14-14-14c-8 0-14 6-14 14s6 14 14 14z m73 185c7 0 14-6 14-14s-7-14-14-14c-8 0-15 6-15 14s7 14 15 14z m321 76c8 0 14-6 14-14 0-8-6-14-14-14-8 0-14 6-14 14 0 8 6 14 14 14z m-150-166c8 0 14-6 14-14 0-8-6-14-14-14s-14 6-14 14c0 8 6 14 14 14z m205-77c1 23 3 79 7 123 5-7 12-12 24-10 6 1 18 5 20 23 0 10-7 24-29 45-1 2-3 4-5 4 13 11 32 30 41 48l2 3-4 4c-19 16-46 31-60 38-5 4-11 6-16 9l2 2c12 12 60 67 30 141-30 74-106 73-147 64-14-4-28-11-35-16-26-18-48-44-53-76-7-34 4-72 30-97 5-5 7-5 9-5 0 0 2 7 12 16 4 3 23 19 50 10 16-5 23-12 26-25 2-5 4-12 4-17h-2c-19-13-42-41-37-108 5-78 12-141 16-178-13 0-23-2-34-4 16 71 13 152-65 202-74 45-178 31-244-25-65-53-79-150-44-226 4-7 7-14 11-19 10-20 26-38 44-50 18-14 39-23 60-30 14-3 26-7 41-11 1 0 3 2 1 4-1 2-1 4-1 4-4 7-7 14-9 23-6 28 3 61 28 79 23 16 53 18 76 0 3-4 7-5 11-11-13-28-13-60-9-79 1-14 5-20 7-25 12-37 44-76 56-90 18-21 66-72 83-90v-76c-7-3-47-30-65-69-2-3 2-8 7-7 32 6 71 7 109 7s74-3 106-7c6 0 9 4 7 7-17 39-60 66-65 69v74c16 18 62 69 78 92 10 14 54 71 61 115 6 42-1 139-135 145z m-172-13c-8-1-14-3-23-9-12-7-19-10-31-22-18 12-48 37-97 17-34-12-45-40-52-65-5-21 0-41-1-41-29 7-52 20-75 43-49 49-61 136-31 197 35 73 121 108 199 96 28-6 58-18 80-39 30-28 33-55 38-85 7-26 2-71-7-92z m198 163c4-4 4-6 5-7 0 0 0 0 0-2 2-5 0-11-3-13-4-1-9 0-11 4l0 0 0 0c0 0 0 0 0 2 0 0 0 0 0 2 0 1-2 5-3 8-2 6-4 18-6 23 0 2 0 4 0 4s0 0 2-2c5-5 14-16 16-19z m12 83c-7-13-21-23-30-32 0 25-5 42-10 56 24-9 40-24 40-24z m-130 104c-14 12-37 14-41 14-9 0-16 0-25-4-10-3-21-9-30-17l0 0c-7 10-8 14-10 21 0 2 0 2-2 3-2 7-3 20-2 37 4 32 23 52 32 59 21 17 41 24 69 24 2 0 3 0 3 0 30 0 57-10 76-33 18-21 25-50 20-81-6-29-20-53-39-69l0 0c-9 2-21 2-32 0l0 0 0 0v2 1c2 11 0 27-19 43z m49-179l0 0c0-1 0-1 0-1s0 0 0-2c-2-2-3-5-5-9-4-5-14-16-20-21-1-2-1-2-1-2s0 0 0 4c1 7 3 23 5 28 2 5 2 9 4 11v1c3 6 8 9 14 6 3-4 5-9 3-15l0 0z m-12 41c-16 0-30 14-30 30s14 30 30 30c16 0 30-14 30-30s-13-30-30-30z m60-397c-46-65-60-69-62-69l0 0 0 0 0 0 0 0c0 0-14 4-62 69-47 67-24 111 11 115 35 3 49-29 49-29 0 2 14 32 50 29 39-4 61-48 14-115z" horiz-adv-x="1000" />

<glyph glyph-name="grid" unicode="&#xe807;" d="M969 288h-375c-17 0-31-14-31-31v-376c0-17 14-31 31-31h375c17 0 31 14 31 31v375c0 18-14 32-31 32z m0 562h-375c-17 0-31-14-31-31v-375c0-17 14-31 31-31h375c17 0 31 14 31 31v375c0 17-14 31-31 31z m-563 0h-375c-17 0-31-14-31-31v-375c0-17 14-31 31-31h375c17 0 31 14 31 31v375c0 17-14 31-31 31z m0-562h-375c-17 0-31-14-31-31v-376c0-17 14-31 31-31h375c17 0 31 14 31 31v375c0 18-14 32-31 32z" horiz-adv-x="1000" />

<glyph glyph-name="kosher" unicode="&#xe808;" d="M459 675l-52-72c0 0 111 7 131 5 20-2 54 0 74-1 20 0 100-12 121-15 21-4 89-19 99-22 9-4 20-6 26-8 7-1 18-2 5-29-13-28-21-56-21-56l42-82c0 0 25 50 27 57 2 7 12 40 17 54 6 13 40 72-30 116 0 0-55 26-127 34-73 8-80 14-161 19-82 5-151 0-151 0z m-223-283c0 0 103 174 114 190 12 17 45 70 58 86 14 16 78 101 82 105 5 4 11 15 27-11 17-26 40-52 40-52l90-1c0 0-31 47-37 53-5 4-28 30-37 42-8 12-41 71-115 34 0 0-41-37-85-95-45-59-52-77-97-143-46-66-77-126-77-126l37-82z m523-86c0 0-46-96-57-113-11-16-33-50-43-67-10-18-53-80-66-97-13-16-56-73-63-80-7-7-16-17-20-22-4-5-7-16-25 9-18 24-40 45-40 45l-92 5c0 0 36-48 42-53 5-4 21-26 30-37 10-11 52-74 124-32 0 0 39 36 80 97 41 61 58 73 99 142 42 68 74 120 74 120l-43 83z m139-36c-31 67-38 84-76 155-38 71-68 126-68 126l-90 12c0 0 74-120 109-194 9-18 35-69 43-88 8-20 41-104 42-109 2-6 20-35-10-39-31-3-57-12-57-12l-50-77c0 0 56 4 63 7 7 2 40 11 55 12 28 4 95 34 76 107-1 1-7 34-37 100z m-725 4c38-71 74-127 74-127l89-14c0 0-60 96-68 115-9 18-26 51-36 68-10 17-41 87-48 106-8 20-35 86-37 96-3 9-7 20-8 26-2 5-7 16 23 19 30 3 59 12 59 12l52 83c0 0-61-9-68-11-7-3-40-11-54-14-15-2-87-6-88-89 0 0 10-58 42-123 32-66 31-77 68-147z m363-253l52 73c0 0-187-2-207 0-19 2-97 8-117 13-21 5-118 26-124 28-5 2-17 3-2 30 15 27 27 58 27 58l-44 89c0 0-23-57-26-64-2-8-14-40-20-52-6-14-44-70 24-118 0 0 52-20 123-33 72-12 88-17 171-20 80-3 143-4 143-4z" horiz-adv-x="1000" />

<glyph glyph-name="tri-down" unicode="&#xe809;" d="M460 550l-230-400-230 400 460 0z" horiz-adv-x="460" />

<glyph glyph-name="tri-up" unicode="&#xe80a;" d="M0 150l230 400 230-400-460 0z" horiz-adv-x="460" />

<glyph glyph-name="tri-left" unicode="&#xe80b;" d="M400 580l0-460-400 230z" horiz-adv-x="400" />

<glyph glyph-name="tri-right" unicode="&#xe80c;" d="M0 580l400-230-400-230 0 460z" horiz-adv-x="400" />

<glyph glyph-name="liqour-license" unicode="&#xe80d;" d="M463 472c1 7-3 14-12 13-31-3-60 0-91 0-15 0-30-2-45-3-13 0-27 1-40 2-3 2-6 1-9-1-2-1-5-2-6-5-12-38-19-77-23-117-2-6-2-13-2-20-2-12-2-24-1-36 0-4 0-8 1-12 0-7 0-14 1-20 0-1 0-2 1-2 0-4 1-7 1-10 3-15 5-30 10-44 2-4 4-8 7-12 1-4 2-7 4-11 2-4 4-7 6-11 5-8 9-15 15-21 16-14 33-27 52-35 4-3 7-6 9-10 5-6 6-14 8-21 0-1 0-1 0-2-1-15 1-32 2-47-1-24 0-48 1-71 0-12 1-25 0-37 0-2 0-3 0-5-5-11-11-20-20-28-26-13-57-21-86-26-8-2-7-14 0-16 5-1 11-1 16-1 3 0 7-1 10-1 13-3 26-3 38-4 18-1 35-2 52-2 35 0 69 0 103 7 1 0 2 0 3 0 1 0 1 0 2 1 2 0 4 1 5 2 8 2 7 17-2 15-2 0-4 0-6 0 0 0-1 0-2 0-15-1-34 8-48 13-13 5-29 11-40 22-9 19-8 40-8 61 1 22 1 45 1 67 2 17 2 34 1 50l0 0c4 13 15 22 24 32 39 23 71 62 82 105 5 18 10 35 10 53 1 8 2 16 2 23 2 21 0 39-3 59-7 35-7 73-23 106z m303-463c-2 132-4 264-6 396 0 36 2 74-4 110-6 31-22 61-46 83-4 5-8 9-14 11-1 1-2 1-2 1-1 1-1 2-2 4-1 1-2 2-3 4-8 28-5 62-5 91 0 30 0 60 1 89 2 1 4 3 5 7 0 6 0 13 1 20 0 3-2 5-5 6 0 0 0 0 0 1 2 7-1 16-10 17-1 1-2 1-3 1l-4 0c-1 0-3 0-5 0-2 0-4 0-6 0-1 0-1 0-2 0-6 1-13 1-20 0 0 0-1 0-2 0-7 0-15 1-22 0-6-2-9-8-9-13v-1l0 0c-1-1-1-3-1-5l0 0c-4-1-6-3-7-7 0-6-1-12-1-18 0-3 1-4 3-5-2-26 1-54 0-79 0-38-2-76-4-114-25-22-47-46-58-80-13-40-10-84-8-125 1-26 1-53 2-79-3-116-2-232-2-347-1-6-1-14 0-19 0-8 0-15 0-22-3-17 2-35 11-50 3-4 5-7 8-10 9-10 22-19 38-22 30-6 66-4 96 0 17 2 35 3 49 13 17 10 27 28 32 47 9 30 5 64 5 95z" horiz-adv-x="1000" />

<glyph glyph-name="loadshedding" unicode="&#xe80e;" d="M836 559c-4 23-6 52-20 73-11 37-36 73-60 102-26 31-66 62-105 76-33 16-65 27-102 32-14 2-32 6-48 6-44 9-99-11-137-29-5-3-10-5-15-8-38-13-87-44-105-82-23-22-38-55-52-82-11-24-22-51-25-79-2-8-3-16-5-24-1-8-1-17-1-26 0-2 0-3-1-5-1-7-1-13 0-20-1-7-1-14 0-21-4-25 6-51 14-73 6-15 12-29 19-43 3-7 6-14 9-20 8-16 17-34 27-49 3-6 6-11 9-17 6-13 12-25 18-38 4-12 9-24 12-35 6-19 12-38 17-57 1-5 1-11 2-17 3-15 3-34 12-47 14-21 38-16 60-16 9-3 20-2 30-1 33-4 69-1 102 1 4-1 8-1 11-1 20-1 40 0 59 1 16 0 31-1 46 0 4-1 7-1 11-2 7-4 15-3 24-1 5 0 10 1 15 1 9 0 16 0 24 3 20 4 28 13 30 32 2 15 4 31 4 47 2 11 4 21 6 31 4 15 9 31 14 46 7 15 15 30 22 45 5 9 10 17 14 25 3 5 6 10 10 15 0 0 0 0 1 1 0 0 0 1 0 1 36 40 53 107 58 159 3 32 0 64-4 96z m-244-56c-33 0-66-6-98-16-39-7-78-23-113-30s-68-2-102 9c-18 6-36 15-54 21-1 5-2 10-3 14 0 4 0 7-1 10 2 23 4 45 10 68 5 16 9 32 14 47 7 11 12 26 18 37 4 9 11 15 14 24 10 7 13 17 21 26 12 14 28 25 43 35 14 9 29 18 44 25 17 8 34 11 51 16 20-1 42 4 63 3 25-1 50-5 74-12 45-13 85-34 120-65 8-9 14-18 20-27 16-20 25-43 36-66-1-9 3-15 7-24 7-17 12-36 16-55 5-27 6-55 7-82-53 40-122 44-187 42z m101-480l0 0-2 1 0 0c-1 0-3 1-5 2-10 4-18 3-25 0-9 0-20 4-27 4-12 0-24 0-36 0-30 0-61 0-92 0-59 0-121-10-180-3-29 3-38-33-25-52 1-19 10-39 23-50 9-9 22-8 35-8 1-12 9-26 16-35 9-13 21-22 36-27 10-3 21-5 32-3 29-5 63 0 89 0 29 0 64-5 86 19 5 5 10 11 14 18 4 5 6 10 8 16 1 4 2 7 3 11 10-1 20-1 29 3 17 8 30 33 30 55 11 15 6 39-9 49z" horiz-adv-x="1000" />

<glyph glyph-name="marker" unicode="&#xe80f;" d="M570 622c0 0 0 0 0 0-1 9-4 17-8 24-5 7-12 14-20 18-2 1-1 2-3 4-3 2-2 5-2 8l0 0c0 1-2 2-2 2l-1 1h0c1 3 3 9 8 14l0 0 0 0c1 0 1 1 1 1 0 1-1 1-1 1l-7 4c0 0 0 0-1 0l0 0c-5-1-7-4-10-9-3-3-5-8-5-13l0 0c0-2-5-4-8-5-2-1-4-1-5-2h-1c-1 0-1 0-2 0-2 0-9-2-10-2h0l0 0c0 0 0 0-1 0-2-1-5-2-6-3-1 0-20-10-24-39 0-7 1-13 2-20 0-1 2-2 2-3l0 0h-2c5-31 4-91-28-129 0 0-7-8 0-15 2-2 5-3 8-4 6-1 14 2 17 3l0 0c7 2 17 6 31 15 6 3 11 6 15 10 1 0 2 1 2 1 2 2 4 3 6 5 7 6 9 8 14 14l0 0c1 1 2 3 3 4 2 2 3 4 4 5 6 8 9 13 14 22l6 14c5 12 10 32 11 32 3 16 4 30 3 42l0 0z m225-8c-8 59-36 103-72 149-43 53-101 71-167 81-41 5-82 8-122 4-24 2-83-35-105-45-113-58-153-256-113-336 36-72 63-161 113-235 27-41 40-86 66-127 22-33 47-81 60-121-3-6 45-74 45-74 8 24 53 83 60 108 39 78 79 157 120 235 23 43 76 150 81 159 36 68 44 132 34 202z m-288-204c-102 0-185 66-185 168 0 102 83 167 184 167 102 0 167-87 167-167 0-102-65-168-166-168z m-5-526c-38 0-69-8-69-17 0-9 31-17 69-17 37 0 68 8 68 17 0 9-31 17-68 17z" horiz-adv-x="1000" />

<glyph glyph-name="nutritional" unicode="&#xe810;" d="M938 709c-18 42-56 79-94 103-7 5-14 8-22 11-11 8-26 14-42 18-3 2-6 3-9 5-17 4-34 4-53 3-54-3-104-16-147-52-8-7-17-15-25-25-11-11-21-23-30-35-7-9-19-22-26-35-4 6-8 13-12 19-1 2-2 3-3 4-17 26-47 49-65 64-10 8-20 13-30 18-17 10-35 20-54 24-26 5-54 3-80-1-56-9-109-42-140-90-51-80-77-203-37-295 2-7 5-14 8-21 8-24 20-47 34-67 11-22 24-42 39-62 2-3 5-6 8-9 0 0 0 0 1 0 0-1 0-2 0-2 2-3 4-6 6-9 35-37 65-80 97-120 32-40 154-166 167-176 28-20 52-45 77-69 21-21 42-38 65-55 3-2 5-3 8-5 9 22 22 44 33 65 16 34 213 305 228 336 4 3 8 7 11 11 13 24 27 47 40 71 8 15 15 31 26 44 2 7 4 15 7 23 1 1 1 2 2 3 17 48 37 100 40 151 3 51-8 110-28 155z m-75-322c-39 3-81 2-120-2-38-4-60-11-97-18-2-3-37-12-38-6-2 12-2 23-1 34-2 10-2 47-2 46-6-2-42-147-45-159-7-28-13-55-21-83-1-8-4-16-7-25-1-6-9-6-10 0-1 4-2 9-3 15-4 26-7 53-13 80 0 7-29 168-28 231 0 3-4 3-4 1-6-24-15-73-18-79-5-12-9-33-16-38-28-6-79-5-104-5-23 0-48 0-71 1-23-1-56-7-80-7-17 0-52 2-51 11 0 4 27 2 34 3 12 1 30 5 43 6 28 1 52 11 80 12 28 0 55 0 83 3 8 1 33 14 41 15 8 9 14 33 17 43 4 13 11 40 14 52 8 34 11 51 19 70 1 7 8 39 9 46 3 16 14 19 14 4 0-4 2-21 2-21 3-18 17-115 25-150 7-35 17-105 22-141 2 6 47 170 72 189 3 2 10 4 13-1 7-9 10-24 12-37 1-15 10-72 11-74 0-1-1-11 12-4h0l0 0c4 1 9 2 13 3 12 2 23 3 35 4 51 3 109 9 158-8 15-5 16-11 0-11z" horiz-adv-x="1000" />

<glyph glyph-name="vegetarian" unicode="&#xe811;" d="M999 837c-1 0-20-7-21-7-4-1-7-2-11-3-56-15-110-45-162-70-29-14-60-26-86-46-27-21-51-44-81-63-55-36-102-80-147-128-27-28-68-131-76-155 0 0-2-19-3-25-2-4-3-8-4-13-1 0-5-12-4-17 0-1-1-2-1-3-9 8-20 15-29 19-3 2-7 3-11 4-1 1-3 2-5 3-17 9-32 21-51 27-41 16-86 24-130 29-27 2-152 2-173-4-17-6 24-80 37-105 8-17 13-36 22-54 8-17 16-32 22-50 0-1 0-3 1-4 1-1 1-3 2-5 19-74 54-147 100-208 45-60 99-99 176-96 32 2 70 15 94 37 28 27-65 174-88 207-24 34-27 43-83 93-1 1 1 12 27-8 14-3 42-40 56-52 64-61 87-131 101-156 7-17 15-34 26-48 17-21 42 1 33 14 3 29-10 69-10 97 0 34 2 69 6 103 4 36 14 73 23 108 8 34 51 137 61 151 30 40 83 98 113 109-3-12-14-23-25-34-19-21-34-39-51-63-18-25-32-55-44-84-11-27-15-55-21-83-14-61-23-122-23-184 0-28 1-56 4-84 1-24 4-49 21-66 3-4 6-6 10-6 4-3 8-4 12-4 169-21 307 112 350 267 25 91 17 184 16 277-1 92 0 185 5 278 2 12 5 24 7 36 1 3 2 6 3 9 8 4 16 61 12 60z" horiz-adv-x="1000" />

<glyph glyph-name="faq" unicode="&#xe812;" d="M926-86c10-11 19-21 29-33 3 10 7 19 10 29 7 27 12 54 14 81 0 27-1 54-5 80-5 34-12 79-29 114 20 26 37 53 47 85 12 44 9 91 1 136-15 86-37 179-95 246-30 34-69 60-109 82-43 25-88 47-136 63-90 30-186 29-277 2-88-25-175-71-245-132-68-57-108-139-123-225-14-85-15-185 41-256 29-36 68-66 104-96 37-30 76-59 120-80 50-24 103-36 157-44 55-8 113-18 169-12 57 6 111 25 168 26 12 3 25 1 38-1 13-1 27-3 39-6 3-2 5-4 8-6 1-1 3-2 4-3 26-12 50-29 70-50z m-424 192c-29-8-61 10-62 42-2 37 38 54 69 55 15-2 28-8 33-29 6-29-11-61-40-68z m149 338c-5-30-27-46-50-63-19-15-39-29-59-42-15-9-33-18-43-33-4-7-6-14-8-21-2-6 0-19-5-24-17-21-33 14-37 23-5 12-6 26-6 39 3 52 38 88 68 126 12 14 18 29 24 46 6 17 17 36 14 55-6 33-58 55-88 45-17-6-27-22-29-39-2-17 2-31 9-44-24-11-55-18-60 17-5 29 20 54 41 70 44 35 93 34 142 9 43-21 85-48 90-99 1-21 1-44-3-65z" horiz-adv-x="1000" />

<glyph glyph-name="hallal" unicode="&#xe813;" d="M971 231c-10 1-20 2-29 4-19 4-38 10-55 17-20 9-39 20-60 27-33 10-70 12-101-6-14-8-26-19-35-32-5-6-10-13-14-19-3-6-6-17-11-22 11 11 23 23 37 31 53 34 112 8 160-23-27-7-55-14-82-20-38-10-93-27-131-6-9 6-16 14-21 23-18 37-9 83-7 122 1 26 1 51 2 76 0 24-2 48-7 72-3 14-8 28-16 40-6 10-14 18-25 24-1 0-2 1-4 1 0-1 0-2 0-2-1-11-2-20-2-30-5-51-11-102-24-151-5-17-11-34-17-50-24-58-60-110-108-150-37-32-78-54-126-67-16-4-31-8-47-12-3-1-5-2-8-3 1 0 2 0 2 0 6-1 13-2 19-2 32-3 63-1 94 6 12 3 25 6 36 11 45 17 81 47 110 84 35 47 58 101 74 157 6 18 11 37 13 56 0-6 1-12 1-18 0-26-3-53-6-79-3-29-6-57-5-86 0-25 3-54 22-72 10-10 23-19 37-23 55-18 112 9 163 28 28 10 55 22 84 28 13 2 25 3 39 1 12-1 26-4 38 1 22 10 30 41 39 62 0 0 0 0 0 0 0-1-26 2-29 2z m-705-89c17 27 24 56 26 87 1 30-2 59-5 88-2 21-5 41-8 62-3 24-6 48-8 72-1 13-1 27-1 39 0 19 14 27 25 39 9 11 2 21-4 32-8 12-11 25-9 39 1 7 6 25-3 28l0 0c-8 4-24-15-30-20-14-12-27-25-39-39-13-17-19-36-16-58 1-13 5-25 9-37 9-30 18-59 28-88 14-45 28-90 34-137 4-26 5-54-12-76-14-20-39-30-61-37-28-8-59-11-89-8-14 1-28 5-41 11-27 13-49 44-41 82 2 13 7 25 10 37 1 2 1 4 2 6-2-2-4-4-6-6-4-5-9-10-12-15-10-15-15-32-15-50-1-39 15-71 45-95 21-16 45-23 71-24 25 0 50 2 74 10 31 11 57 30 76 58z m91 218c25-16 58-14 76-42 8-13 11-28 12-43 1-9 1-16 0-24 0-4 2-20-1-23 27 30 20 82 11 118-4 14-10 27-17 40-25 45-73 76-122 88-6-14-8-27-6-42 4-28 23-57 47-72z" horiz-adv-x="1000" />

<glyph glyph-name="social-action-retweet" unicode="&#xe814;" d="M714 11q0-7-5-13t-13-5h-535q-5 0-8 1t-5 4-3 4-2 7 0 6v335h-107q-15 0-25 11t-11 25q0 13 8 23l179 214q11 12 27 12t28-12l178-214q9-10 9-23 0-15-11-25t-25-11h-107v-214h321q9 0 14-6l89-108q4-5 4-11z m357 232q0-13-8-23l-178-214q-12-13-28-13t-27 13l-179 214q-8 10-8 23 0 14 11 25t25 11h107v214h-322q-9 0-14 7l-89 107q-4 5-4 11 0 7 5 12t13 6h536q4 0 7-1t5-4 3-5 2-6 1-7v-334h107q14 0 25-11t10-25z" horiz-adv-x="1071.4" />

<glyph glyph-name="social-action-like" unicode="&#xe815;" d="M2 460q11 37 101 37h225l69 207v1q19 56 44 75t49 0 43-75l1-1 68-207h226q58 0 85-17t14-47-59-63l-5-4-176-126 67-207 2-2q27-85-4-109t-105 29l-3 2-2 1-177 127-179-128-2-2q-73-52-105-29t-4 109l1 1v2l68 206-177 126-2 2-2 2q-73 52-61 90z" horiz-adv-x="931.2" />

<glyph glyph-name="target" unicode="&#xe816;" d="M880 350c0-210-170-380-380-380s-380 170-380 380c0 210 170 380 380 380s380-170 380-380z m-380 290c-160 0-290-130-290-290s130-290 290-290 290 130 290 290-130 290-290 290z m60-290c0-33-27-60-60-60s-60 27-60 60c0 33 27 60 60 60s60-27 60-60z m-438-45h-124v90h124v-90z m878 0h-124v90h124v-90z m-455 421h-90v124h90v-124z m0-876h-90v124h90v-124z" horiz-adv-x="1000" />

<glyph glyph-name="cancel" unicode="&#xe817;" d="M724 112q0-22-15-38l-76-76q-16-15-38-15t-38 15l-164 165-164-165q-16-15-38-15t-38 15l-76 76q-16 16-16 38t16 38l164 164-164 164q-16 16-16 38t16 38l76 76q16 16 38 16t38-16l164-164 164 164q16 16 38 16t38-16l76-76q15-15 15-38t-15-38l-164-164 164-164q15-15 15-38z" horiz-adv-x="785.7" />

<glyph glyph-name="basket" unicode="&#xe818;" d="M754 658l-125-14-6 49a159 159 0 0 1-176 140l-17-2a160 160 0 0 1-140-176l6-48-122-13 65-728 609 79z m-446-1a139 139 0 0 0 29 104 141 141 0 0 0 95 52l16 2a136 136 0 0 0 17 1 142 142 0 0 0 140-125l6-49-298-33z" horiz-adv-x="1000" />

<glyph glyph-name="user" unicode="&#xe819;" d="M401 374c-131 0-237 106-237 237 0 131 106 237 237 237 131 0 237-106 237-237 0-131-106-237-237-237z m452-309c0 0-176-214-413-214-322 0-438 187-438 187-13 62 145 266 423 266 278 0 427-202 428-239z" horiz-adv-x="855" />

<glyph glyph-name="online-ordering-1" unicode="&#xe81a;" d="M891 170a26 26 0 1 1 26-26 26 26 0 0 1-26 26z m0 79a105 105 0 1 1 105-105 105 105 0 0 1-105 105z m0-158a53 53 0 1 0 52 53 53 53 0 0 0-52-53z m-3 184l3 0a0 0 0 0 0 0 0 131 131 0 0 0 83-30 13 13 0 1 1 17 20 158 158 0 0 1-92 36l-81 162a52 52 0 0 1 20-4h13a13 13 0 0 1 13 13v79a13 13 0 0 1-13 13h-13a52 52 0 0 1-45-26h-60v92a13 13 0 0 1-13 13h-39v13a13 13 0 0 1-27 0v-53a13 13 0 0 1 27 0v13h26v-112l-30 30a13 13 0 0 1-10 4h-52a13 13 0 0 1 0-27h47l46-46 25-98-41-142a40 40 0 0 0-38-29h-91a39 39 0 0 0-40 40v105a13 13 0 0 1-13 13h-281c-125 0-144-188-144-196a13 13 0 0 1 13-14h39a105 105 0 0 1 207-27h402a13 13 0 0 1 13 14v7c0 74 58 135 129 137z m-646-184a53 53 0 0 0-52 53h26a26 26 0 0 1 53 0h26a53 53 0 0 0-53-53z m-109 302v-13h79v46h26v-46h285v13a39 39 0 0 1-39 40h-205a39 39 0 0 1 17 32v158a39 39 0 0 1-39 39h-215a39 39 0 0 1-40-39v-158a39 39 0 0 1 40-39h109a39 39 0 0 1-18-33z m16 80h0c0 0-10 3-43 49-34 48-17 78 8 81 25 2 35-20 35-21 1 1 11 23 36 21 25-3 42-33 8-81-33-46-43-48-44-49z" horiz-adv-x="1000" />

<glyph glyph-name="delivery" unicode="&#xe81b;" d="M891 170a26 26 0 1 1 26-26 26 26 0 0 1-26 26z m0 79a105 105 0 1 1 105-105 105 105 0 0 1-105 105z m0-158a53 53 0 1 0 52 53 53 53 0 0 0-52-53z m-3 184l3 0a0 0 0 0 0 0 0 131 131 0 0 0 83-30 13 13 0 1 1 17 20 158 158 0 0 1-92 36l-81 162a52 52 0 0 1 20-4h13a13 13 0 0 1 13 13v79a13 13 0 0 1-13 13h-13a52 52 0 0 1-45-26h-60v92a13 13 0 0 1-13 13h-39v13a13 13 0 0 1-27 0v-53a13 13 0 0 1 27 0v13h26v-112l-30 30a13 13 0 0 1-10 4h-52a13 13 0 0 1 0-27h47l46-46 25-98-41-142a40 40 0 0 0-38-29h-91a39 39 0 0 0-40 40v105a13 13 0 0 1-13 13h-281c-125 0-144-188-144-196a13 13 0 0 1 13-14h39a105 105 0 0 1 207-27h402a13 13 0 0 1 13 14v7c0 74 58 135 129 137z m-646-184a53 53 0 0 0-52 53h26a26 26 0 0 1 53 0h26a53 53 0 0 0-53-53z m-109 302v-13h79v46h26v-46h285v13a39 39 0 0 1-39 40h-205a39 39 0 0 1 17 32v158a39 39 0 0 1-39 39h-215a39 39 0 0 1-40-39v-158a39 39 0 0 1 40-39h109a39 39 0 0 1-18-33z m16 80h0c0 0-10 3-43 49-34 48-17 78 8 81 25 2 35-20 35-21 1 1 11 23 36 21 25-3 42-33 8-81-33-46-43-48-44-49z" horiz-adv-x="1000" />

<glyph glyph-name="drive-thru" unicode="&#xe81c;" d="M475 380l-6 94c-1 13-12 13-26 13l-231 0c-14 0-25 0-26-13l-6-94 295 0z m66-96c0 19-16 35-35 35-19 0-34-16-34-35 0-19 15-35 34-35 19 0 35 16 35 35z m-114-48l0 63c0 8-7 15-15 15l-164 0c-8 0-15-7-15-16l0-62 194 0z m-279 13c19 0 35 16 35 35 0 19-16 35-35 35-19 0-34-16-34-35 0-19 15-35 34-35z m307 274c26 0 48-21 50-47l6-97 64-39-1-163-28 0 0-53c0-23-18-42-41-42-22 0-41 19-41 42l0 53-274 0 1-53c0-23-19-42-42-42-22 0-41 19-41 42l0 53-28 0 0 163 63 39 7 97c2 26 24 47 50 47l255 0z m242-14c0 21-16 37-36 37-20 0-36-16-36-37 0-21 16-37 36-37 20 0 36 16 36 37z m-95 105l-36-38 299 0 0-247-43 0 0 43c0 5-1 9-4 12l-91 90c-10 10-27 10-37 0l-53-53-44 33c-7 7-18 8-26 2-8-6-8-18-2-26l57-44c3-4 8-6 13-6 6 0 11 2 14 6l30 30 73-74 0-13-129 0 0-247 297 0 0 25 0 507-318 0z" horiz-adv-x="1000" />

<glyph glyph-name="online-ordering" unicode="&#xe81d;" d="M426 157l-1 2c-2 8-2 20 4 30 5 6 14 14 31 16l4 0 122-35-69 524-112-13-5 43c-9 78-79 134-157 125l-15-1c-77-9-133-79-125-158l5-42-108-12 57-649 430 56-61 114z m-307 535c-4 33 5 67 26 93 21 26 51 42 85 47l14 1c5 1 10 1 15 1 64 0 118-48 125-112l5-44-266-30-4 44z m213-517c-1 0-25 2-126 101-104 102-75 185-15 201 60 16 95-34 95-36 0 2 16 61 79 66 62 4 117-63 53-195-61-127-85-136-86-137z m281 115l109 169 35-13-121-172-23 16z m47-37l174 103 26-28-186-98-14 23z m17-46l201 17 12-35-211-10-2 28z m104-352l30 59-161 121 67 51-240 69 123-230 34 69 147-139z" horiz-adv-x="895" />

<glyph glyph-name="wifi" unicode="&#xe81e;" d="M684 95l0 1 0 0c0 0 0 0 0-1z m-64 197c0 0 1 0 1-1-1 0-1 1-1 1l0 0z m6-64c0 0 0 0 0 0 0 0 0 0 0 0l0 0 0 0z m0-26l0 0c0 0 0 0 0 0 0 0-1 0 0 0z m63 7c-1 0-1 0-1-1 1 0 1 1 1 1l0 0z m-22 2l0 0c-1 0 0 0 0-1 0 0 0 1 0 1z m20 21l0 0c0 1 0 0 0 0 0 0 0 0 0 0z m-31-60c0 0 0 0 0 0l0 0c0 0 0 0 0 0z m14 13l0 1 0-1c0 0 0 0 0 0 0 0 0 0 0 0z m-12-36c-1-1 0-1 0-1 0 0 0 0 0 0l0 1z m20 20l0 1 0 0c0 0 0 0 0-1z m2-23l0 1c-1-1-1-1 0-1 0 0 0 0 0 0z m7 342l-25-48c-111 119-267 158-407 118l-21-2-28-15-25-7-13-12c-39-22-76-50-108-86l0 0-43 32 1 0c183 201 478 208 669 20z m-61-94c-140 154-364 159-510 18l26-48c78 84 187 115 286 91l23-2 23-12 23-6 8-9c28-16 55-37 79-64 0 0 0 0 0 0l42 32c0 0 0 0 0 0z m-447-74l0 0 43-32 0 0c26 29 58 48 91 57l9 6 11-1 14 5 15-3c51 0 102-21 140-63l35 40c-101 102-259 99-358-9z m183-25c-54 0-98-44-98-98s44-97 98-97 97 44 97 97-44 98-97 98z m47-93l0 0c-4-18-19-32-19-32s-14-14-19-18c-7-6-29-21-29-21s3 8 1 20c-2 12-17 33-17 33-7 9-9 16-9 16-3 7-3 13-3 18 0 3 0 5 0 7 1 3 2 5 2 5 0 2 1 4 2 5 0 0 0 0 0 0l0 0c3 5 7 8 11 10 8 4 17 2 18 2 12-4 15-12 15-12l0 0c15 16 31 6 31 6 5-2 8-5 10-8 1-1 3-3 5-7 1-2 1-4 1-4l0 0c2-5 2-12 0-20z" horiz-adv-x="705" />

<glyph glyph-name="social-action-reply" unicode="&#xf02a;" d="M0 380q0 6 3 13t7 10l3 3 377 274q20 16 35 6t15-41v-111l27-2q96-8 181-54t146-117 94-165 33-197q-61 107-161 175t-223 78q-49 5-97-1v-137q0-30-15-40t-35 5l-377 274q-13 11-13 27z" horiz-adv-x="920.9" />

<glyph glyph-name="twitter" unicode="&#xf099;" d="M904 622q-37-54-90-93 0-8 0-23 0-73-21-145t-64-139-103-117-144-82-181-30q-151 0-276 81 19-2 43-2 126 0 224 77-59 1-105 36t-64 89q19-3 34-3 24 0 48 6-63 13-104 62t-41 115v2q38-21 82-23-37 25-59 64t-22 86q0 49 25 91 68-83 164-133t208-55q-5 21-5 41 0 75 53 127t127 53q79 0 132-57 61 12 115 44-21-64-80-100 52 6 104 28z" horiz-adv-x="928.6" />

<glyph glyph-name="facebook" unicode="&#xf09a;" d="M535 843v-147h-87q-48 0-65-20t-17-60v-106h164l-22-165h-142v-424h-171v424h-142v165h142v122q0 104 58 161t155 57q82 0 127-7z" horiz-adv-x="571.4" />

<glyph glyph-name="instagram" unicode="&#xf16d;" d="M571 350q0 59-41 101t-101 42-101-42-42-101 42-101 101-42 101 42 41 101z m77 0q0-91-64-156t-155-64-156 64-64 156 64 156 156 64 155-64 64-156z m61 229q0-21-15-36t-37-15-36 15-15 36 15 36 36 15 37-15 15-36z m-280 123q-4 0-43 0t-59 0-54-2-57-5-40-11q-28-11-49-32t-33-49q-6-16-10-40t-6-58-1-53 0-59 0-43 0-43 0-59 1-53 6-58 10-40q12-28 33-49t49-32q16-6 40-11t57-5 54-2 59 0 43 0 42 0 59 0 54 2 58 5 39 11q28 11 50 32t32 49q6 16 10 40t6 58 1 53 0 59 0 43 0 43 0 59-1 53-6 58-10 40q-11 28-32 49t-50 32q-16 6-39 11t-58 5-54 2-59 0-42 0z m428-352q0-128-3-177-5-116-69-180t-179-69q-50-3-177-3t-177 3q-116 6-180 69t-69 180q-3 49-3 177t3 177q5 116 69 180t180 69q49 3 177 3t177-3q116-6 179-69t69-180q3-49 3-177z" horiz-adv-x="857.1" />

<glyph glyph-name="pdf" unicode="&#xf1c1;" d="M819 638q16-16 27-42t11-50v-642q0-23-15-38t-38-16h-750q-23 0-38 16t-16 38v892q0 23 16 38t38 16h500q22 0 49-11t42-27z m-248 136v-210h210q-5 17-12 23l-175 175q-6 7-23 12z m215-853v572h-232q-23 0-38 16t-16 37v233h-429v-858h715z m-287 331q18-14 47-31 33 4 65 4 82 0 99-27 9-13 1-29 0-1-1-1l-1-2v0q-3-21-39-21-27 0-64 11t-73 29q-123-13-219-46-85-146-135-146-8 0-15 4l-14 7q0 0-3 2-6 6-4 20 5 23 32 51t73 54q8 5 13-3 1-1 1-2 29 47 60 110 38 76 58 146-13 46-17 89t4 71q6 22 23 22h12q13 0 20-8 10-12 5-38-1-3-2-4 0-2 0-5v-17q-1-68-8-107 31-91 82-133z m-321-229q29 13 76 88-29-22-49-47t-27-41z m222 513q-9-23-2-73 1 4 4 24 0 2 4 24 1 3 3 5-1 0-1 1-1 1-1 2 0 12-7 20 0-1 0-1v-2z m-70-368q76 30 159 45-1 0-7 5t-9 8q-43 37-71 98-15-48-46-110-17-31-26-46z m361 9q-13 13-78 13 42-16 69-16 8 0 10 1 0 0-1 2z" horiz-adv-x="857.1" />

<glyph glyph-name="facebook-block" unicode="&#xf230;" d="M810 779q19 0 33-14t14-34v-762q0-20-14-34t-33-14h-218v333h111l16 129h-127v83q0 31 13 46t51 16l68 1v115q-35 5-100 5-75 0-121-44t-45-127v-95h-112v-129h112v-333h-411q-19 0-33 14t-14 34v762q0 20 14 34t33 14h763z" horiz-adv-x="857.1" />

<glyph glyph-name="linkedin" unicode="&#xf312;" d="M1000 761v-824q0-36-26-62t-62-26h-824q-36 0-62 26t-26 62v824q0 36 26 62t62 26h824q36 0 62-26t26-62z m-332-712h129v247q0 89-41 135t-107 46q-47 0-79-21t-49-47h-2l-6 59h-111q3-114 3-134v-285h128v241q0 21 4 33 20 49 66 49 65 0 65-91v-232z m-354 582q-19 18-49 18t-49-18-19-47 19-46 47-19q32 0 51 18 18 18 18 44 0 31-18 50z m-114-582h128v419h-128v-419z" horiz-adv-x="1000" />
</font>
</defs>
</svg>
